<svg width="20" height="23" viewBox="0 0 20 23" fill="none" xmlns="http://www.w3.org/2000/svg">
<g clip-path="url(#clip0_4_296)">
<path d="M19.5808 17.924C19.2218 18.7275 18.7967 19.4672 18.3043 20.1472C17.633 21.0743 17.0834 21.716 16.6598 22.0724C16.0032 22.6573 15.2997 22.9569 14.5464 22.9739C14.0056 22.9739 13.3534 22.8248 12.5942 22.5224C11.8325 22.2214 11.1325 22.0724 10.4925 22.0724C9.82119 22.0724 9.10128 22.2214 8.33123 22.5224C7.56002 22.8248 6.93874 22.9824 6.46373 22.998C5.74132 23.0278 5.02125 22.7198 4.30251 22.0724C3.84376 21.6848 3.26997 21.0204 2.58259 20.0791C1.84508 19.0739 1.23875 17.9084 0.76374 16.5795C0.25502 15.1442 0 13.7543 0 12.4087C0 10.8673 0.343837 9.5379 1.03254 8.42385C1.57379 7.52901 2.29386 6.82313 3.19508 6.30493C4.09629 5.78674 5.07006 5.52267 6.11872 5.50578C6.69251 5.50578 7.44497 5.67771 8.38004 6.0156C9.31247 6.35462 9.91118 6.52655 10.1737 6.52655C10.3699 6.52655 11.035 6.32552 12.1625 5.92474C13.2288 5.55306 14.1287 5.39916 14.8659 5.45978C16.8636 5.61595 18.3644 6.37876 19.3625 7.75304C17.5758 8.80164 16.6921 10.2703 16.7097 12.1544C16.7258 13.622 17.2754 14.8432 18.3556 15.8129C18.8451 16.2629 19.3918 16.6108 20 16.8578C19.8681 17.2283 19.7289 17.5833 19.5808 17.924ZM14.9993 0.460131C14.9993 1.61039 14.5654 2.68439 13.7007 3.67847C12.6572 4.86024 11.395 5.54312 10.0262 5.43536C10.0088 5.29737 9.99868 5.15213 9.99868 4.99951C9.99868 3.89526 10.4949 2.71349 11.3762 1.74724C11.8162 1.25801 12.3758 0.851218 13.0544 0.526715C13.7315 0.207053 14.372 0.0302728 14.9744 0C14.9919 0.153772 14.9993 0.307554 14.9993 0.460116V0.460131Z" fill="#131723"/>
</g>
<defs>
<clipPath id="clip0_4_296">
<rect width="20" height="23" fill="white"/>
</clipPath>
</defs>
</svg>
