<svg width="86" height="49" viewBox="0 0 86 49" fill="none" xmlns="http://www.w3.org/2000/svg">
<path d="M0.566807 19.3039V1.71573H7.5059C8.83417 1.71573 9.96779 1.95333 10.9067 2.42853C11.8514 2.89801 12.5699 3.56501 13.0623 4.42953C13.5604 5.28833 13.8095 6.29885 13.8095 7.46109C13.8095 8.62906 13.5576 9.63385 13.0537 10.4755C12.5499 11.3114 11.8199 11.9526 10.8638 12.3992C9.91339 12.8458 8.7626 13.069 7.41143 13.069H2.76533V10.0804H6.81027C7.52021 10.0804 8.10992 9.9831 8.57939 9.78844C9.04887 9.59377 9.39812 9.30178 9.62713 8.91246C9.86187 8.52314 9.97924 8.03935 9.97924 7.46109C9.97924 6.87711 9.86187 6.38473 9.62713 5.98396C9.39812 5.58319 9.04601 5.27974 8.57081 5.07363C8.10133 4.8618 7.50876 4.75588 6.79309 4.75588H4.2854V19.3039H0.566807ZM10.0651 11.2999L14.4364 19.3039H10.3313L6.05453 11.2999H10.0651Z" fill="white"/>
<path d="M20.1302 19.553C19.2886 19.553 18.5386 19.407 17.8802 19.115C17.2218 18.8173 16.7008 18.3793 16.3172 17.801C15.9393 17.217 15.7504 16.4899 15.7504 15.6197C15.7504 14.8868 15.8849 14.2714 16.154 13.7733C16.4231 13.2752 16.7895 12.8744 17.2533 12.5709C17.717 12.2675 18.2437 12.0385 18.8334 11.8839C19.4289 11.7293 20.0529 11.6205 20.7056 11.5576C21.4728 11.4774 22.0912 11.403 22.5606 11.3343C23.0301 11.2598 23.3708 11.1511 23.5826 11.0079C23.7944 10.8648 23.9004 10.653 23.9004 10.3724V10.3209C23.9004 9.77698 23.7286 9.35617 23.3851 9.05846C23.0473 8.76074 22.5664 8.61188 21.9423 8.61188C21.2839 8.61188 20.76 8.75788 20.3707 9.04987C19.9814 9.33614 19.7237 9.69683 19.5978 10.132L16.2141 9.85714C16.3859 9.05559 16.7237 8.36283 17.2275 7.77885C17.7313 7.18914 18.3811 6.73684 19.177 6.42195C19.9785 6.10133 20.906 5.94102 21.9595 5.94102C22.6923 5.94102 23.3937 6.0269 24.0635 6.19866C24.7391 6.37042 25.3374 6.63665 25.8584 6.99734C26.3851 7.35804 26.8002 7.82179 27.1037 8.38859C27.4071 8.94968 27.5588 9.6224 27.5588 10.4068V19.3039H24.0893V17.4747H23.9862C23.7744 17.8869 23.491 18.2505 23.136 18.5654C22.7811 18.8745 22.3545 19.1178 21.8564 19.2953C21.3583 19.4671 20.7829 19.553 20.1302 19.553ZM21.178 17.0281C21.7161 17.0281 22.1913 16.9222 22.6036 16.7103C23.0158 16.4928 23.3393 16.2008 23.574 15.8344C23.8087 15.468 23.9261 15.0529 23.9261 14.5891V13.1893C23.8116 13.2637 23.6542 13.3324 23.4538 13.3954C23.2591 13.4526 23.0387 13.507 22.7925 13.5586C22.5463 13.6044 22.3001 13.6473 22.0539 13.6874C21.8077 13.7217 21.5845 13.7532 21.3841 13.7818C20.9547 13.8448 20.5797 13.945 20.259 14.0824C19.9384 14.2198 19.6894 14.4059 19.5119 14.6406C19.3344 14.8697 19.2457 15.1559 19.2457 15.4994C19.2457 15.9975 19.426 16.3783 19.7867 16.6416C20.1531 16.8993 20.6169 17.0281 21.178 17.0281Z" fill="white"/>
<path d="M30.3972 24.2506V6.11278H34.0041V8.32848H34.1673C34.3276 7.97351 34.5595 7.61281 34.8629 7.24639C35.1721 6.87425 35.5729 6.56508 36.0652 6.31889C36.5633 6.06698 37.1817 5.94102 37.9202 5.94102C38.8821 5.94102 39.7695 6.19293 40.5825 6.69676C41.3955 7.19486 42.0453 7.94774 42.532 8.9554C43.0186 9.95733 43.262 11.214 43.262 12.7255C43.262 14.1969 43.0244 15.4393 42.5492 16.4527C42.0797 17.4604 41.4384 18.2247 40.6255 18.7457C39.8182 19.261 38.9136 19.5186 37.9116 19.5186C37.2017 19.5186 36.5977 19.4013 36.0996 19.1665C35.6072 18.9318 35.2036 18.6369 34.8887 18.282C34.5738 17.9213 34.3333 17.5577 34.1673 17.1913H34.0556V24.2506H30.3972ZM33.9784 12.7084C33.9784 13.4927 34.0871 14.1769 34.3047 14.7609C34.5223 15.3449 34.8371 15.8 35.2494 16.1264C35.6616 16.447 36.1626 16.6073 36.7523 16.6073C37.3477 16.6073 37.8515 16.4441 38.2638 16.1178C38.676 15.7857 38.988 15.3277 39.1998 14.7437C39.4174 14.154 39.5262 13.4755 39.5262 12.7084C39.5262 11.9469 39.4203 11.277 39.2084 10.6988C38.9966 10.1205 38.6846 9.6682 38.2723 9.34186C37.8601 9.01552 37.3534 8.85235 36.7523 8.85235C36.1568 8.85235 35.653 9.00979 35.2408 9.32468C34.8343 9.63958 34.5223 10.0862 34.3047 10.6644C34.0871 11.2427 33.9784 11.924 33.9784 12.7084Z" fill="white"/>
<path d="M45.7009 19.3039V6.11278H49.3594V19.3039H45.7009ZM47.5388 4.41236C46.9949 4.41236 46.5283 4.23201 46.1389 3.87131C45.7553 3.50489 45.5635 3.06691 45.5635 2.55735C45.5635 2.05353 45.7553 1.62126 46.1389 1.26057C46.5283 0.894148 46.9949 0.710938 47.5388 0.710938C48.0827 0.710938 48.5464 0.894148 48.93 1.26057C49.3193 1.62126 49.514 2.05353 49.514 2.55735C49.514 3.06691 49.3193 3.50489 48.93 3.87131C48.5464 4.23201 48.0827 4.41236 47.5388 4.41236Z" fill="white"/>
<path d="M57.1509 19.5186C56.1489 19.5186 55.2415 19.261 54.4285 18.7457C53.6212 18.2247 52.98 17.4604 52.5048 16.4527C52.0353 15.4393 51.8006 14.1969 51.8006 12.7255C51.8006 11.214 52.0439 9.95733 52.5305 8.9554C53.0172 7.94774 53.6642 7.19486 54.4714 6.69676C55.2844 6.19293 56.1747 5.94102 57.1423 5.94102C57.8809 5.94102 58.4963 6.06698 58.9887 6.31889C59.4868 6.56508 59.8876 6.87425 60.191 7.24639C60.5002 7.61281 60.7349 7.97351 60.8952 8.32848H61.0069V1.71573H64.6568V19.3039H61.0498V17.1913H60.8952C60.7235 17.5577 60.4801 17.9213 60.1653 18.282C59.8561 18.6369 59.4525 18.9318 58.9544 19.1665C58.462 19.4013 57.8608 19.5186 57.1509 19.5186ZM58.3103 16.6073C58.9 16.6073 59.3981 16.447 59.8046 16.1264C60.2168 15.8 60.5317 15.3449 60.7492 14.7609C60.9725 14.1769 61.0842 13.4927 61.0842 12.7084C61.0842 11.924 60.9754 11.2427 60.7578 10.6644C60.5403 10.0862 60.2254 9.63958 59.8132 9.32468C59.4009 9.00979 58.9 8.85235 58.3103 8.85235C57.7091 8.85235 57.2024 9.01552 56.7902 9.34186C56.378 9.6682 56.0659 10.1205 55.8541 10.6988C55.6423 11.277 55.5363 11.9469 55.5363 12.7084C55.5363 13.4755 55.6423 14.154 55.8541 14.7437C56.0717 15.3277 56.3837 15.7857 56.7902 16.1178C57.2024 16.4441 57.7091 16.6073 58.3103 16.6073Z" fill="white"/>
<path d="M10.1081 27.9348C10.0394 27.2421 9.7445 26.7039 9.22349 26.3203C8.70249 25.9367 7.99541 25.7449 7.10226 25.7449C6.49538 25.7449 5.98296 25.8308 5.56501 26.0025C5.14706 26.1686 4.82645 26.4005 4.60316 26.6982C4.3856 26.9959 4.27682 27.3337 4.27682 27.7116C4.26536 28.0264 4.33121 28.3013 4.47434 28.536C4.6232 28.7707 4.82645 28.974 5.08409 29.1457C5.34173 29.3118 5.63944 29.4578 5.97724 29.5837C6.31503 29.704 6.67573 29.807 7.05932 29.8929L8.63951 30.2708C9.4067 30.4425 10.1109 30.6715 10.7522 30.9578C11.3934 31.2441 11.9487 31.5962 12.4182 32.0141C12.8877 32.4321 13.2513 32.9245 13.5089 33.4913C13.7723 34.0581 13.9068 34.7079 13.9125 35.4407C13.9068 36.5171 13.632 37.4503 13.0881 38.2404C12.5499 39.0248 11.7713 39.6345 10.7522 40.0697C9.73877 40.4991 8.51642 40.7138 7.08509 40.7138C5.66521 40.7138 4.42854 40.4962 3.37508 40.0611C2.32734 39.6259 1.50862 38.9819 0.918914 38.1288C0.334931 37.27 0.0286266 36.2079 0 34.9426H3.59836C3.63844 35.5323 3.80734 36.0247 4.10506 36.4198C4.4085 36.8091 4.81213 37.1039 5.31596 37.3043C5.82551 37.499 6.40091 37.5963 7.04215 37.5963C7.67193 37.5963 8.2187 37.5047 8.68245 37.3215C9.15193 37.1383 9.51548 36.8835 9.77312 36.5572C10.0308 36.2308 10.1596 35.8558 10.1596 35.4322C10.1596 35.0371 10.0422 34.705 9.80748 34.4359C9.57846 34.1669 9.24067 33.9378 8.79409 33.7489C8.35324 33.56 7.8122 33.3882 7.17097 33.2336L5.25585 32.7527C3.77299 32.392 2.60216 31.8281 1.74336 31.0609C0.884562 30.2937 0.458026 29.2603 0.463751 27.9606C0.458026 26.8957 0.741429 25.9653 1.31396 25.1695C1.89222 24.3737 2.68518 23.7525 3.69283 23.3059C4.70049 22.8593 5.84555 22.6361 7.12803 22.6361C8.4334 22.6361 9.57274 22.8593 10.546 23.3059C11.5251 23.7525 12.2865 24.3737 12.8304 25.1695C13.3744 25.9653 13.6549 26.8871 13.6721 27.9348H10.1081Z" fill="white"/>
<path d="M20.0036 32.8386V40.4647H16.3451V27.2736H19.8318V29.6009H19.9864C20.2784 28.8337 20.7679 28.2268 21.4549 27.7803C22.142 27.328 22.975 27.1018 23.954 27.1018C24.8701 27.1018 25.6688 27.3022 26.3501 27.703C27.0314 28.1037 27.561 28.6763 27.9389 29.4206C28.3167 30.1591 28.5057 31.0408 28.5057 32.0657V40.4647H24.8472V32.7183C24.8529 31.9111 24.6468 31.2813 24.2288 30.829C23.8109 30.371 23.2355 30.142 22.5027 30.142C22.0103 30.142 21.5752 30.2479 21.1973 30.4597C20.8251 30.6715 20.5331 30.9807 20.3213 31.3872C20.1152 31.788 20.0093 32.2718 20.0036 32.8386Z" fill="white"/>
<path d="M35.1506 40.7138C34.309 40.7138 33.559 40.5678 32.9006 40.2758C32.2421 39.9781 31.7211 39.5401 31.3375 38.9618C30.9597 38.3778 30.7707 37.6507 30.7707 36.7805C30.7707 36.0476 30.9053 35.4321 31.1744 34.934C31.4435 34.4359 31.8099 34.0352 32.2736 33.7317C32.7374 33.4283 33.2641 33.1993 33.8538 33.0447C34.4493 32.8901 35.0733 32.7813 35.726 32.7183C36.4932 32.6382 37.1115 32.5638 37.581 32.4951C38.0505 32.4206 38.3911 32.3118 38.603 32.1687C38.8148 32.0256 38.9207 31.8137 38.9207 31.5332V31.4817C38.9207 30.9378 38.749 30.517 38.4055 30.2192C38.0677 29.9215 37.5867 29.7727 36.9627 29.7727C36.3043 29.7727 35.7804 29.9187 35.3911 30.2107C35.0018 30.4969 34.7441 30.8576 34.6182 31.2927L31.2345 31.0179C31.4062 30.2164 31.744 29.5236 32.2479 28.9396C32.7517 28.3499 33.4015 27.8976 34.1973 27.5827C34.9989 27.2621 35.9264 27.1018 36.9798 27.1018C37.7127 27.1018 38.414 27.1877 39.0839 27.3594C39.7595 27.5312 40.3578 27.7974 40.8788 28.1581C41.4055 28.5188 41.8206 28.9826 42.1241 29.5494C42.4275 30.1105 42.5792 30.7832 42.5792 31.5676V40.4647H39.1097V38.6355H39.0066C38.7948 39.0477 38.5114 39.4112 38.1564 39.7261C37.8014 40.0353 37.3749 40.2786 36.8768 40.4561C36.3787 40.6279 35.8033 40.7138 35.1506 40.7138ZM36.1983 38.1889C36.7365 38.1889 37.2117 38.083 37.6239 37.8711C38.0362 37.6536 38.3597 37.3616 38.5944 36.9952C38.8291 36.6287 38.9465 36.2137 38.9465 35.7499V34.3501C38.832 34.4245 38.6745 34.4932 38.4742 34.5562C38.2795 34.6134 38.0591 34.6678 37.8129 34.7193C37.5667 34.7651 37.3205 34.8081 37.0743 34.8482C36.8281 34.8825 36.6048 34.914 36.4045 34.9426C35.9751 35.0056 35.6 35.1058 35.2794 35.2432C34.9588 35.3806 34.7098 35.5667 34.5323 35.8014C34.3548 36.0304 34.266 36.3167 34.266 36.6602C34.266 37.1583 34.4464 37.5391 34.8071 37.8024C35.1735 38.0601 35.6373 38.1889 36.1983 38.1889Z" fill="white"/>
<path d="M45.4175 45.4114V27.2736H49.0245V29.4893H49.1877C49.348 29.1343 49.5799 28.7736 49.8833 28.4072C50.1925 28.035 50.5932 27.7259 51.0856 27.4797C51.5837 27.2278 52.2021 27.1018 52.9406 27.1018C53.9025 27.1018 54.7899 27.3537 55.6029 27.8576C56.4159 28.3557 57.0657 29.1085 57.5524 30.1162C58.039 31.1181 58.2823 32.3748 58.2823 33.8863C58.2823 35.3577 58.0447 36.6001 57.5695 37.6135C57.1001 38.6212 56.4588 39.3855 55.6458 39.9065C54.8386 40.4218 53.934 40.6794 52.932 40.6794C52.2221 40.6794 51.6181 40.562 51.12 40.3273C50.6276 40.0926 50.224 39.7977 49.9091 39.4427C49.5942 39.082 49.3537 38.7185 49.1877 38.3521H49.076V45.4114H45.4175ZM48.9987 33.8691C48.9987 34.6535 49.1075 35.3377 49.3251 35.9217C49.5426 36.5056 49.8575 36.9608 50.2698 37.2872C50.682 37.6078 51.1829 37.7681 51.7727 37.7681C52.3681 37.7681 52.8719 37.6049 53.2841 37.2786C53.6964 36.9465 54.0084 36.4885 54.2202 35.9045C54.4378 35.3148 54.5466 34.6363 54.5466 33.8691C54.5466 33.1077 54.4407 32.4378 54.2288 31.8596C54.017 31.2813 53.7049 30.829 53.2927 30.5026C52.8805 30.1763 52.3738 30.0131 51.7727 30.0131C51.1772 30.0131 50.6734 30.1706 50.2612 30.4855C49.8547 30.8004 49.5426 31.2469 49.3251 31.8252C49.1075 32.4035 48.9987 33.0848 48.9987 33.8691Z" fill="white"/>
<path d="M74.339 40.4646H81.8964" stroke="white" stroke-width="1.5" stroke-linecap="round" stroke-linejoin="round"/>
<path d="M78.1177 44.2435V36.686" stroke="white" stroke-width="1.5" stroke-linecap="round" stroke-linejoin="round"/>
<g clip-path="url(#clip0_46_306)">
<path d="M68.7958 42.1475C68.4502 42.1206 68.0838 42.0896 67.7195 42.0627C64.3829 41.8042 61.7521 39.2357 61.5783 35.9082C61.4665 33.7782 61.4603 31.6315 61.5762 29.5015C61.7542 26.1906 64.3022 23.589 67.6098 23.3718C69.7728 23.2291 71.9585 23.225 74.1215 23.3532C77.4581 23.5497 80.0103 26.0499 80.2628 29.3815C80.4201 31.4723 80.4201 33.59 80.2959 35.6828C80.0744 39.3701 77.5306 41.8187 73.84 42.0855C73.602 42.102 73.366 42.1248 73.01 42.1537M65.689 32.769C65.6662 35.6746 68.0093 38.0569 70.8988 38.0693C73.7883 38.0817 76.1665 35.7138 76.1665 32.8227C76.1665 29.8965 73.8525 27.5492 70.9505 27.5368C68.0465 27.5244 65.7117 29.8448 65.6869 32.769H65.689Z" fill="#00D1FF"/>
<path d="M70.9857 28.9741C68.8227 28.9493 67.1048 30.6265 67.0799 32.7876C67.0551 34.8515 68.7813 36.6073 70.8615 36.6321C72.9955 36.659 74.7797 34.9135 74.7735 32.8083C74.7694 30.7113 73.0763 28.999 70.9836 28.9741H70.9857ZM72.0475 33.5218C71.2838 33.5218 70.6649 32.9034 70.6649 32.1403C70.6649 31.3772 71.2838 30.7589 72.0475 30.7589C72.8113 30.7589 73.4302 31.3772 73.4302 32.1403C73.4302 32.9034 72.8113 33.5218 72.0475 33.5218Z" fill="#00D1FF"/>
</g>
<defs>
<clipPath id="clip0_46_306">
<rect width="18.8936" height="18.8936" fill="white" transform="translate(61.4913 23.2603)"/>
</clipPath>
</defs>
</svg>
