<svg width="89" height="89" viewBox="0 0 89 89" fill="none" xmlns="http://www.w3.org/2000/svg">
<rect opacity="0.3" x="17.2044" y="35.6346" width="46.082" height="28.2878" rx="6" stroke="#00D1FF" stroke-width="2"/>
<rect x="23.0514" y="28.1006" width="46.082" height="28.2878" rx="6" fill="#0C101B" stroke="#00D1FF" stroke-width="2"/>
<path fill-rule="evenodd" clip-rule="evenodd" d="M71.7167 27.1006C71.4405 27.1006 71.2167 26.8767 71.2167 26.6006V21.6006C71.2167 21.3244 71.4405 21.1006 71.7167 21.1006C71.9928 21.1006 72.2167 21.3244 72.2167 21.6006L72.2167 26.1006H77.6017C77.8779 26.1006 78.1017 26.3244 78.1017 26.6006C78.1017 26.8767 77.8779 27.1006 77.6017 27.1006H71.7167Z" fill="white"/>
<path fill-rule="evenodd" clip-rule="evenodd" d="M66.6583 62.6112C66.3822 62.6112 66.1583 62.8351 66.1583 63.1112V68.1112C66.1583 68.3873 66.3822 68.6112 66.6583 68.6112C66.9345 68.6112 67.1583 68.3873 67.1583 68.1112L67.1583 63.6112H72.5434C72.8195 63.6112 73.0434 63.3873 73.0434 63.1112C73.0434 62.8351 72.8195 62.6112 72.5434 62.6112H66.6583Z" fill="#00D1FF"/>
<path fill-rule="evenodd" clip-rule="evenodd" d="M14.7409 62.6112C15.017 62.6112 15.2409 62.8351 15.2409 63.1112V68.1112C15.2409 68.3873 15.017 68.6112 14.7409 68.6112C14.4648 68.6112 14.2409 68.3873 14.2409 68.1112L14.2409 63.6112H8.85587C8.57972 63.6112 8.35587 63.3873 8.35587 63.1112C8.35587 62.8351 8.57972 62.6112 8.85587 62.6112H14.7409Z" fill="#00D1FF"/>
<path fill-rule="evenodd" clip-rule="evenodd" d="M14.7409 33.5238C15.017 33.5238 15.2409 33.2999 15.2409 33.0238V28.0238C15.2409 27.7477 15.017 27.5238 14.7409 27.5238C14.4648 27.5238 14.2409 27.7477 14.2409 28.0238L14.2409 32.5238H8.85587C8.57972 32.5238 8.35587 32.7477 8.35587 33.0238C8.35587 33.2999 8.57972 33.5238 8.85587 33.5238H14.7409Z" fill="#00D1FF"/>
</svg>
