<svg width="89" height="89" viewBox="0 0 89 89" fill="none" xmlns="http://www.w3.org/2000/svg">
<rect opacity="0.3" x="16.8876" y="35.6346" width="46.082" height="28.2878" rx="6" stroke="#00D1FF" stroke-width="2"/>
<rect x="22.7346" y="28.1006" width="46.082" height="28.2878" rx="6" fill="#0C101B" stroke="#00D1FF" stroke-width="2"/>
<path d="M52.6219 36.8749C52.6434 36.323 52.2134 35.8582 51.6615 35.8367L42.6684 35.4864C42.1165 35.4649 41.6517 35.8949 41.6302 36.4467C41.6087 36.9986 42.0387 37.4634 42.5905 37.4849L50.5845 37.7963L50.2731 45.7902C50.2516 46.3421 50.6815 46.8069 51.2334 46.8284C51.7853 46.8499 52.2501 46.4199 52.2716 45.868L52.6219 36.8749ZM39.2496 46.919C38.8442 47.294 38.8195 47.9267 39.1946 48.3321C39.5696 48.7376 40.2023 48.7622 40.6077 48.3872L39.2496 46.919ZM50.9436 36.1018L39.2496 46.919L40.6077 48.3872L52.3017 37.57L50.9436 36.1018Z" fill="white"/>
</svg>
