<svg width="16" height="17" viewBox="0 0 16 17" fill="none" xmlns="http://www.w3.org/2000/svg">
<path d="M8.92666 3.96838L9.86666 5.84838C9.99332 6.10838 10.3333 6.35505 10.62 6.40838L12.32 6.68838C13.4067 6.86838 13.66 7.65505 12.88 8.44171L11.5533 9.76838C11.3333 9.98838 11.2067 10.4217 11.28 10.735L11.66 12.375C11.96 13.6684 11.2667 14.175 10.1267 13.495L8.53333 12.5484C8.24666 12.375 7.76666 12.375 7.47999 12.5484L5.88666 13.495C4.74666 14.1684 4.05333 13.6684 4.35333 12.375L4.73333 10.735C4.79333 10.415 4.66666 9.98171 4.44666 9.76171L3.11999 8.43505C2.33999 7.65505 2.59333 6.86838 3.67999 6.68171L5.37999 6.40171C5.66666 6.35505 6.00666 6.10171 6.13333 5.84171L7.07333 3.96171C7.58666 2.94838 8.41333 2.94838 8.92666 3.96838Z" fill="#FFB801"/>
</svg>
