<svg width="14" height="12" viewBox="0 0 14 12" fill="none" xmlns="http://www.w3.org/2000/svg">
<g clip-path="url(#clip0_46_365)">
<path d="M12.5294 3.70785C12.5379 3.82486 12.5379 3.94187 12.5379 4.05995C12.5379 7.65814 9.67017 11.8079 4.42638 11.8079V11.8058C2.87734 11.8079 1.36049 11.3841 0.0564575 10.585C0.281699 10.6109 0.50807 10.6238 0.735006 10.6244C2.01872 10.6254 3.26573 10.214 4.27565 9.45642C3.05573 9.43432 1.98597 8.67456 1.61226 7.56539C2.0396 7.64412 2.47993 7.62794 2.89936 7.51848C1.56936 7.26182 0.612506 6.14564 0.612506 4.84937V4.81486C1.0088 5.02569 1.45251 5.1427 1.90638 5.15564C0.653716 4.35598 0.267587 2.76422 1.02404 1.51971C2.47146 3.22093 4.60702 4.25515 6.89952 4.36461C6.66976 3.41883 6.98363 2.42775 7.72428 1.76289C8.87251 0.731914 10.6784 0.784757 11.7577 1.88098C12.3962 1.76074 13.0082 1.53696 13.5682 1.2199C13.3553 1.85025 12.9099 2.38569 12.3149 2.72593C12.88 2.66231 13.4321 2.5178 13.952 2.29726C13.5693 2.8451 13.0872 3.32231 12.5294 3.70785Z" fill="#1D9BF0"/>
</g>
<defs>
<clipPath id="clip0_46_365">
<rect width="14" height="11" fill="white" transform="translate(0 0.942139)"/>
</clipPath>
</defs>
</svg>
